<svg height="512" viewBox="0 0 512 512" width="512" xmlns="http://www.w3.org/2000/svg"><g id="Flat"><path d="m352 315.869 15.736 12.795a16 16 0 0 1 5.834 13.926l-2.971 31.3a32 32 0 0 0 28.831 34.881l6.794-71.54a32 32 0 0 0 -20.2-32.825l-31.758-12.427z" fill="#6e3c26"/><path d="m339.767 284.373c14.679 16.075 32.806 30.4 32.806 30.4 10.12 11.23 7.051 29.827-4.179 39.947a27.364 27.364 0 0 1 -38.663-2.011l-4.375-5.39-14.532-3.895 1.452-8.509-10.1-14.338a8 8 0 0 1 .951-10.333l11.973-11.686-12.158-39.758 25.92-12.656z" fill="#feb784"/><path d="m345.427 304.29 11.2 1.663a9.607 9.607 0 0 1 1.965 18.881l-2.268.6 3.13 34.673c12.589-3.629 30.53-14.77 30.085-37.424-.626-31.889-49.772-38.311-49.772-38.311z" fill="#6e3c26"/><path d="m487.926 401.133a9 9 0 0 1 -9.025 7.637h-43.808a8.006 8.006 0 0 1 -5.382-2.08l-85.711-77.92-40-56-24 4-2.96.49a28.5 28.5 0 0 1 -4.76.4 28.89 28.89 0 0 1 -25.82-41.81l1.54-3.08-7.02-10.53-8.98-13.47-8-40-.26-.13-15.74-7.87-113.12 169.68-30.88 46.32 26.53 13.27a9.886 9.886 0 0 1 5.37 10.293 10.1 10.1 0 0 1 -10.1 8.437h-61.8v-22.123a8 8 0 0 1 .835-3.558l30.525-61.479 24.64-49.61 32-48 38.67-83.16a94.413 94.413 0 0 1 26.62-33.9 49.91 49.91 0 0 1 71.11 9.03l15.6 20.8 10.25 17.08 13.75 22.92 4.67 5.45 20.62 24.05 22.71 26.5 48 80 64 72 32.93 6.58a8.811 8.811 0 0 1 6.996 9.783z" fill="#fec093"/><rect fill="#f7b488" height="22.472" rx="8" transform="matrix(.845 -.534 .534 .845 -94.539 199.808)" width="16" x="290" y="252.032"/><path d="m280 276.77-2.96.49a28.5 28.5 0 0 1 -4.76.4 28.89 28.89 0 0 1 -25.82-41.81l1.54-3.08-7.02-10.53 51.02-39.47.67-.55 20.62 24.05c-41.2 28.98-33.29 70.5-33.29 70.5z" fill="#c378cb"/><path d="m264 136.77-40 31.23-.26.64-15.74-7.87-113.12 169.68-1.88-.45-37.64-8.39 24.64-49.61 32-48 38.67-83.16a94.413 94.413 0 0 1 26.62-33.9 49.91 49.91 0 0 1 71.11 9.03z" fill="#bc4598"/><path d="m208 160.5a8 8 0 0 1 -3.578-10.733l4.421-9.343a8 8 0 0 1 10.733-3.578 8 8 0 0 1 3.578 10.733l-4.421 9.343a8 8 0 0 1 -10.733 3.578z" fill="#a33484"/></g></svg>