<svg height="512" viewBox="0 0 512 512" width="512" xmlns="http://www.w3.org/2000/svg"><g id="Flat"><path d="m346.86 338.547a21.791 21.791 0 0 0 -4.86-7.218 22.209 22.209 0 0 0 -15.6-6.351h-3.151l-13.346-7.312-5.56 7.312h-11.302a4.779 4.779 0 0 0 -4.819 4.738l-.222 14.284h-24l2.49-6 5.58-13.42a20.644 20.644 0 0 0 -19.07-28.58h-5l-8-24h-40v2.33a228.548 228.548 0 0 0 6.08 52.23q.3 1.29.63 2.58a227.078 227.078 0 0 0 17.29 46.86h40l24-8h40c11.158-.79 20.687-9.6 20.455-21.751a21.265 21.265 0 0 0 -1.595-7.702z" fill="#feb784"/><path d="m283.442 389.675-3.442 10.325h60a20 20 0 0 0 20-20 20 20 0 0 0 -20-20h-12v16h-25.585a20 20 0 0 0 -18.973 13.675z" fill="#61311c"/><path d="m308.15 360.907 4.778 4.7a7.831 7.831 0 0 0 7.391 1.991 7.579 7.579 0 0 0 4.967-10.849l-.863-1.653 22.437-16.547a21.27 21.27 0 0 1 1.6 8.117v9.859c0 .389-.008.775-.024 1.16-.66 16.155-15.636 28.1-31.953 26.1l-.859-.141c-11.435-1.889-19.424-7.584-27.624-15.644z" fill="#6e3c26"/><path d="m273.65 316.65a20.663 20.663 0 0 1 -1.58 7.93l-5.58 13.42-59.78-8.86q-.33-1.29-.63-2.58a227.147 227.147 0 0 1 -4.17-22.88l46.09-7.68h5a20.631 20.631 0 0 1 20.65 20.65z" fill="#c378cb"/><path d="m24 376h224a16 16 0 0 0 16-16 16 16 0 0 0 -16-16h-80l-80 8-32-8-32 16z" fill="#fec093"/><path d="m488 320v48l-13.69 13.69a7.877 7.877 0 0 1 -13.45-5.56 7.777 7.777 0 0 1 .84-3.52l2.3-4.61-16-40-39.77-16.57-56.23-23.43-96-40-16 24h-40v-32.93a50.122 50.122 0 0 1 76.8-42.44l107.2 67.37a240.426 240.426 0 0 1 31.16 10.1q3.45 1.38 6.84 2.89a235.931 235.931 0 0 1 22.64 11.38l27.36 15.63a15.979 15.979 0 0 1 16 16z" fill="#feb784"/><path d="m422 276.99-13.77 34.44-56.23-23.43-96-40-16 24h-40v-32.93a50.122 50.122 0 0 1 76.8-42.44l107.2 67.37a240.426 240.426 0 0 1 31.16 10.1q3.45 1.38 6.84 2.89z" fill="#bc4598"/><rect fill="#a33484" height="35.777" rx="8" transform="matrix(.447 -.894 .894 .447 -81.994 347.331)" width="16" x="232" y="222.111"/></g></svg>